<?xml version="1.0" standalone="no"?>
<!DOCTYPE svg PUBLIC "-//W3C//DTD SVG 20010904//EN"
 "http://www.w3.org/TR/2001/REC-SVG-20010904/DTD/svg10.dtd">
<svg version="1.0" xmlns="http://www.w3.org/2000/svg"
 width="500.000000pt" height="500.000000pt" viewBox="0 0 500.000000 500.000000"
 preserveAspectRatio="xMidYMid meet">

<g transform="translate(0.000000,500.000000) scale(0.100000,-0.100000)"
fill="#000000" stroke="none">
<path d="M2472 4163 c37 -2 100 -2 140 0 40 1 10 3 -67 3 -77 0 -110 -1 -73
-3z"/>
<path d="M2333 4153 c9 -2 23 -2 30 0 6 3 -1 5 -18 5 -16 0 -22 -2 -12 -5z"/>
<path d="M2733 4153 c9 -2 23 -2 30 0 6 3 -1 5 -18 5 -16 0 -22 -2 -12 -5z"/>
<path d="M2268 4143 c6 -2 18 -2 25 0 6 3 1 5 -13 5 -14 0 -19 -2 -12 -5z"/>
<path d="M2793 4143 c9 -2 23 -2 30 0 6 3 -1 5 -18 5 -16 0 -22 -2 -12 -5z"/>
<path d="M2208 4133 c6 -2 18 -2 25 0 6 3 1 5 -13 5 -14 0 -19 -2 -12 -5z"/>
<path d="M2848 4133 c6 -2 18 -2 25 0 6 3 1 5 -13 5 -14 0 -19 -2 -12 -5z"/>
<path d="M2115 4115 c-54 -17 -33 -18 30 -1 28 8 41 14 30 14 -11 0 -38 -5
-60 -13z"/>
<path d="M2908 4123 c7 -3 16 -2 19 1 4 3 -2 6 -13 5 -11 0 -14 -3 -6 -6z"/>
<path d="M2955 4110 c11 -5 27 -9 35 -9 9 0 8 4 -5 9 -11 5 -27 9 -35 9 -9 0
-8 -4 5 -9z"/>
<path d="M1920 4050 c-8 -5 -10 -10 -5 -10 6 0 17 5 25 10 8 5 11 10 5 10 -5
0 -17 -5 -25 -10z"/>
<path d="M1860 4025 c-14 -8 -20 -14 -15 -14 6 0 21 6 35 14 14 8 21 14 15 14
-5 0 -21 -6 -35 -14z"/>
<path d="M3190 4030 c8 -5 20 -10 25 -10 6 0 3 5 -5 10 -8 5 -19 10 -25 10 -5
0 -3 -5 5 -10z"/>
<path d="M3251 4006 c2 -2 15 -9 29 -15 24 -11 24 -11 6 3 -16 13 -49 24 -35
12z"/>
<path d="M1785 3990 c-3 -6 1 -7 9 -4 18 7 21 14 7 14 -6 0 -13 -4 -16 -10z"/>
<path d="M1341 3968 c-7 -12 -16 -57 -19 -102 -5 -79 -6 -82 -69 -174 -61 -90
-63 -92 -73 -67 -14 37 -12 69 6 126 12 35 14 53 6 61 -32 32 -47 -134 -18
-193 13 -26 11 -36 -30 -141 -25 -62 -58 -144 -76 -183 -17 -38 -50 -116 -73
-171 l-42 -102 5 77 c8 141 -38 234 -123 248 l-37 6 35 -52 c62 -90 80 -150
85 -296 l4 -129 25 83 c22 79 91 256 92 237 1 -4 25 16 55 46 64 66 130 100
205 106 49 4 53 6 36 18 -22 17 -83 18 -122 3 -33 -12 -116 -90 -145 -137 -40
-65 -29 -21 15 61 133 242 357 481 582 618 90 55 118 80 38 33 -199 -114 -407
-307 -533 -492 -28 -41 -50 -71 -50 -68 0 3 18 52 41 108 67 168 89 197 189
248 50 25 80 48 80 62 0 5 -27 -10 -60 -33 -33 -24 -62 -40 -66 -37 -18 19
115 164 156 170 14 2 26 11 28 21 3 15 0 18 -17 12 -12 -4 -21 -2 -21 4 0 22
-30 11 -30 -11 -1 -13 -21 -45 -45 -71 l-45 -49 0 49 c0 31 7 60 21 82 11 18
17 37 12 42 -5 5 -14 -1 -22 -13z"/>
<path d="M3350 3956 c0 -3 9 -10 20 -16 11 -6 20 -8 20 -6 0 3 -9 10 -20 16
-11 6 -20 8 -20 6z"/>
<path d="M3435 3904 c6 -6 42 -32 80 -59 95 -66 306 -280 382 -388 107 -152
190 -332 249 -537 13 -47 21 -67 18 -45 -21 147 -151 435 -272 605 -77 108
-224 259 -333 341 -73 55 -144 103 -124 83z"/>
<path d="M1360 3285 c0 -11 11 -15 38 -15 50 -1 112 -30 145 -69 l27 -33 0
-404 c0 -351 2 -404 15 -404 13 0 15 51 17 379 l3 379 270 -378 270 -379 138
0 c108 -1 137 2 131 12 -4 6 -79 111 -166 232 -86 121 -233 326 -326 455
l-168 235 -197 3 c-171 2 -197 0 -197 -13z"/>
<path d="M2400 3290 c0 -5 -20 -10 -45 -10 -33 0 -45 -4 -45 -15 0 -11 12 -15
44 -15 28 0 52 -7 67 -19 l24 -19 3 -426 3 -426 109 0 109 0 3 421 3 421 28
24 c19 17 40 24 68 24 28 0 39 4 39 15 0 11 -12 15 -45 15 -25 0 -45 5 -45 10
0 6 -60 10 -160 10 -100 0 -160 -4 -160 -10z"/>
<path d="M1135 3037 c-45 -16 -76 -37 -121 -82 -33 -33 -67 -74 -74 -92 l-14
-31 -22 65 c-26 78 -44 94 -88 77 -30 -11 -17 -45 35 -92 l51 -46 -5 -65 c-4
-43 -3 -53 2 -30 13 65 123 180 254 267 37 25 67 47 67 48 0 8 -28 2 -85 -19z"/>
<path d="M745 2880 c-5 -8 8 -27 32 -49 49 -44 69 -81 87 -162 19 -80 26 -85
25 -18 0 39 -3 49 -9 34 l-9 -20 0 20 c-1 18 -27 76 -66 146 -22 39 -51 63
-60 49z"/>
<path d="M4177 2780 c3 -30 10 -82 14 -115 7 -53 7 -51 3 20 -3 44 -9 96 -14
115 -7 28 -8 24 -3 -20z"/>
<path d="M1050 2768 c-72 -20 -132 -92 -154 -182 -6 -24 -9 -27 -17 -15 -12
16 -3 -223 11 -301 11 -67 11 -29 0 94 -10 107 -10 111 14 160 16 32 61 87
117 143 50 51 88 96 84 102 -7 13 -8 13 -55 -1z"/>
<path d="M4204 2490 c0 -58 1 -81 3 -52 2 28 2 76 0 105 -2 28 -3 5 -3 -53z"/>
<path d="M2705 2366 c-9 -21 -14 -43 -11 -49 2 -7 5 -6 5 3 1 8 8 28 16 44 9
16 13 31 10 34 -2 3 -12 -12 -20 -32z"/>
<path d="M1843 2375 c-22 -15 -83 -102 -83 -118 0 -5 18 18 40 51 56 84 90 96
71 25 -6 -21 -11 -45 -10 -53 0 -8 7 8 15 35 20 72 10 90 -33 60z"/>
<path d="M2892 2337 c-30 -79 -27 -106 4 -34 14 33 24 66 22 75 -2 10 -14 -9
-26 -41z"/>
<path d="M3088 2365 c-9 -16 -21 -56 -28 -87 -9 -41 -22 -66 -45 -88 l-32 -31
-13 32 c-12 28 -12 33 5 45 10 8 14 14 9 14 -6 0 -25 -18 -43 -40 -32 -41 -58
-52 -58 -25 0 8 4 12 9 9 4 -3 8 2 8 11 0 11 -5 15 -15 11 -10 -3 -15 1 -15
12 -1 9 -7 3 -15 -15 -16 -38 -31 -42 -41 -11 -6 21 -7 21 -20 3 -13 -17 -14
-17 -14 -2 0 10 10 22 23 27 13 5 16 9 7 9 -21 1 -40 -19 -40 -41 0 -21 11
-23 28 -6 9 9 12 8 12 -5 0 -10 8 -17 19 -17 14 0 17 -6 15 -27 l-4 -28 12 25
c9 17 20 24 34 22 11 -2 28 6 39 18 24 26 29 25 43 -5 10 -21 9 -32 -3 -54 -8
-16 -11 -31 -8 -35 10 -10 33 15 33 38 0 11 11 35 25 51 l25 30 -6 -45 -5 -45
21 45 c16 35 23 41 30 30 5 -8 10 -10 10 -4 0 19 -13 24 -28 12 -13 -11 -14
-8 -7 22 4 19 18 61 32 93 26 63 27 102 1 52z m-117 -268 c-10 -9 -11 -8 -5 6
3 10 9 15 12 12 3 -3 0 -11 -7 -18z"/>
<path d="M3517 2383 c-17 -28 -37 -126 -36 -177 l1 -61 29 110 c16 61 29 116
29 123 0 13 -16 17 -23 5z"/>
<path d="M4193 2335 c0 -27 2 -38 4 -22 2 15 2 37 0 50 -2 12 -4 0 -4 -28z"/>
<path d="M1937 2304 c-29 -31 -72 -107 -81 -144 -4 -14 6 2 22 35 29 61 77
125 92 125 5 0 11 -28 13 -62 l4 -63 -1 64 c-1 74 -13 85 -49 45z"/>
<path d="M2671 2254 c-7 -25 -10 -48 -8 -51 3 -2 10 17 16 43 7 25 10 48 8 51
-3 2 -10 -17 -16 -43z"/>
<path d="M2370 2276 c7 -7 13 -7 20 0 6 6 3 10 -10 10 -13 0 -16 -4 -10 -10z"/>
<path d="M2500 2276 c7 -7 13 -7 20 0 6 6 3 10 -10 10 -13 0 -16 -4 -10 -10z"/>
<path d="M4176 2229 c-4 -28 -5 -53 -3 -56 3 -2 8 19 12 47 4 28 5 53 2 56 -2
3 -7 -19 -11 -47z"/>
<path d="M1852 2240 c0 -14 2 -19 5 -12 2 6 2 18 0 25 -3 6 -5 1 -5 -13z"/>
<path d="M1750 2221 c0 -11 4 -22 9 -25 4 -3 6 6 3 19 -5 30 -12 33 -12 6z"/>
<path d="M2434 2217 c9 -14 12 -15 14 -3 2 8 11 17 20 19 9 3 3 4 -14 3 -27
-1 -30 -3 -20 -19z"/>
<path d="M3150 2232 c0 -4 -13 -22 -29 -40 -28 -30 -30 -47 -3 -20 9 9 12 9
12 -2 0 -11 3 -11 12 -2 11 11 21 72 12 72 -2 0 -4 -3 -4 -8z"/>
<path d="M2019 2220 c-1 -5 -2 -16 -3 -22 -1 -7 -5 -16 -11 -20 -6 -4 -2 -8 8
-8 14 0 17 5 12 19 -4 13 0 23 12 30 17 10 17 10 1 11 -10 0 -19 -4 -19 -10z"/>
<path d="M3167 2222 c-11 -16 11 -44 27 -35 19 12 66 9 66 -4 0 -22 25 -14 51
15 l24 27 -26 -22 c-32 -29 -39 -29 -39 -1 0 17 -3 19 -12 10 -18 -18 -38 -15
-38 6 -1 14 -3 14 -20 -6 l-19 -22 -3 22 c-2 17 -5 19 -11 10z"/>
<path d="M901 2205 c-1 -33 47 -211 83 -303 129 -334 381 -638 681 -822 507
-312 1128 -331 1655 -54 306 162 558 421 717 737 47 95 118 295 127 362 4 22
-5 1 -18 -47 -69 -243 -162 -425 -318 -620 -119 -150 -257 -270 -432 -377
-483 -294 -1098 -318 -1601 -61 -451 231 -756 624 -875 1130 -10 41 -19 66
-19 55z"/>
<path d="M2087 2188 c-9 -16 -12 -26 -7 -23 6 3 10 0 10 -7 1 -7 8 0 17 16 15
28 16 29 29 12 7 -11 20 -16 29 -13 8 4 15 2 15 -3 0 -6 6 -10 13 -10 15 0 47
31 47 46 0 4 -7 -2 -16 -14 -20 -28 -34 -28 -34 1 -1 22 -1 22 -16 2 -15 -20
-15 -20 -30 -1 -21 29 -38 27 -57 -6z"/>
<path d="M1836 2176 c-4 -18 -3 -41 0 -51 5 -12 4 -16 -3 -12 -11 7 -24 -37
-22 -77 1 -40 30 58 34 117 4 64 0 74 -9 23z"/>
<path d="M2035 2201 c-3 -5 -1 -12 5 -16 5 -3 10 1 10 9 0 18 -6 21 -15 7z"/>
<path d="M2390 2199 c0 -3 13 -17 28 -32 l29 -27 18 22 c19 23 19 23 0 6 -18
-17 -20 -17 -47 9 -15 15 -28 24 -28 22z"/>
<path d="M1972 2160 c0 -19 2 -27 5 -17 2 9 2 25 0 35 -3 9 -5 1 -5 -18z"/>
<path d="M2639 2135 c-17 -79 -8 -83 82 -40 40 19 68 35 61 35 -7 0 -40 -14
-73 -31 -34 -17 -64 -28 -67 -25 -3 4 0 29 6 58 7 28 10 53 8 55 -2 3 -10 -21
-17 -52z"/>
<path d="M2556 2163 c-6 -14 -5 -15 5 -6 7 7 10 15 7 18 -3 3 -9 -2 -12 -12z"/>
<path d="M2358 2128 c6 -6 18 -8 28 -6 14 3 12 5 -9 10 -19 3 -25 2 -19 -4z"/>
<path d="M2498 2123 c7 -3 16 -2 19 1 4 3 -2 6 -13 5 -11 0 -14 -3 -6 -6z"/>
<path d="M1960 2106 c0 -9 5 -16 10 -16 6 0 10 4 10 9 0 6 -4 13 -10 16 -5 3
-10 -1 -10 -9z"/>
<path d="M1570 1980 c0 -119 -19 -145 -109 -152 -19 -2 -36 -9 -39 -15 -3 -10
33 -13 157 -13 136 0 161 2 161 15 0 11 -12 15 -44 15 -29 0 -52 7 -70 21 -25
19 -26 25 -26 110 0 72 -3 89 -15 89 -12 0 -15 -14 -15 -70z"/>
<path d="M2409 1993 c46 -64 50 -89 20 -127 -17 -22 -28 -26 -70 -26 -37 0
-49 -4 -49 -15 0 -17 -38 -16 664 -15 231 0 422 3 424 5 4 3 61 220 62 233 0
1 -20 2 -44 2 -41 0 -48 -4 -107 -65 -107 -111 -201 -145 -409 -145 -196 0
-230 22 -230 148 l0 62 -151 0 -150 0 40 -57z"/>
</g>
</svg>
